<svg xmlns="http://www.w3.org/2000/svg" viewBox="0 0 400 400"><path fill="none" stroke="#467205" stroke-width="2" d="M313.35 73.44c-25.05-22.1-56.86-36.8-90.1-40.76Q145.52 23.42 86.6 73.23a.58.56 54.9 0 0-.12.74q19.57 31.85 39.73 63.33 10.33 16.14 35.08 60.99a.91.9-44.7 0 1-.01.88q-25.62 45.53-31.59 55.02-21.75 34.53-43.32 68.88a.53.53 36.9 0 0 .1.68c31.11 26.95 69.14 41.52 110.26 42.17q65.46 1.04 116.18-41.6a1.31 1.31-35.7 0 0 .28-1.7c-25.3-40.94-49.37-77.71-74.47-123.65a.94.9 46.2 0 1 0-.88q25.59-46.08 36.2-62.68 19.43-30.42 38.54-61.21a.61.6 37.3 0 0-.11-.76" vector-effect="non-scaling-stroke"/><path d="M189.31 0h21.5C313.48 6.45 393.52 86.48 400 189.31v21.25q-1.57 21.01-5.23 35.95C373.47 333.3 299.39 394.74 209.94 400h-20.25q-77.8-5.39-131.69-59.09C23.15 306.18 3.35 260.22 0 210.94v-21.75q5.81-80.41 62.68-134.64C97.1 21.73 141.65 3.14 189.31 0Zm124.04 73.44c-25.05-22.1-56.86-36.8-90.1-40.76Q145.52 23.42 86.6 73.23a.58.56 54.9 0 0-.12.74q19.57 31.85 39.73 63.33 10.33 16.14 35.08 60.99a.91.9-44.7 0 1-.01.88q-25.62 45.53-31.59 55.02-21.75 34.53-43.32 68.88a.53.53 36.9 0 0 .1.68c31.11 26.95 69.14 41.52 110.26 42.17q65.46 1.04 116.18-41.6a1.31 1.31-35.7 0 0 .28-1.7c-25.3-40.94-49.37-77.71-74.47-123.65a.94.9 46.2 0 1 0-.88q25.59-46.08 36.2-62.68 19.43-30.42 38.54-61.21a.61.6 37.3 0 0-.11-.76Z"/><path fill="#8ce309" d="M223.25 32.68c33.24 3.96 65.05 18.66 90.1 40.76a.61.6 37.3 0 1 .11.76q-19.11 30.79-38.54 61.21-10.61 16.6-36.2 62.68a.94.9 46.2 0 0 0 .88c25.1 45.94 49.17 82.71 74.47 123.65a1.31 1.31-35.7 0 1-.28 1.7q-50.72 42.64-116.18 41.6c-41.12-.65-79.15-15.22-110.26-42.17a.53.53 36.9 0 1-.1-.68q21.57-34.35 43.32-68.88 5.97-9.49 31.59-55.02a.91.9-44.7 0 0 .01-.88q-24.75-44.85-35.08-60.99-20.16-31.48-39.73-63.33a.58.56 54.9 0 1 .12-.74q58.92-49.81 136.65-40.55Z"/></svg>